<?xml version="1.0" encoding="utf-8"?>
<!-- Generator: Adobe Illustrator 22.0.1, SVG Export Plug-In . SVG Version: 6.00 Build 0)  -->
<svg version="1.1" id="logo" xmlns="http://www.w3.org/2000/svg" xmlns:xlink="http://www.w3.org/1999/xlink" x="0px" y="0px"
	 viewBox="0 0 452 99" style="enable-background:new 0 0 452 99;" xml:space="preserve">
<style type="text/css">
	.st0{enable-background:new    ;}
	.st1{fill:#E8B55F;}
	.st2{fill:#AE9D6B;}
</style>
<g class="st0">
	<path class="st1" d="M33.1,3.6c5.5,0,10.5,1.3,15.2,3.9c4.6,2.6,8.3,6.2,10.9,10.7c2.6,4.6,4,9.5,4,14.9c0,5.4-1.3,10.3-3.9,14.9
		c-2.6,4.6-6.2,8.2-10.8,10.8c-4.6,2.6-9.5,3.9-14.9,3.9c-5.4,0-10.4-1.3-15-3.9c-4.6-2.6-8.2-6.2-10.9-10.7
		c-2.6-4.5-3.9-9.5-3.9-14.9C3.8,28,5.1,23,7.7,18.4c2.6-4.6,6.2-8.2,10.7-10.8C23,4.9,27.9,3.6,33.1,3.6z M33.3,56.3
		c6.4,0,11.8-2.2,16.3-6.5c4.4-4.4,6.7-9.8,6.7-16.4c0-6.6-2.2-12.1-6.7-16.6c-4.5-4.5-9.9-6.7-16.2-6.7c-6.5,0-11.9,2.2-16.2,6.7
		c-4.3,4.5-6.5,10-6.5,16.4c0,6.4,2.2,11.9,6.7,16.4C21.8,54.1,27.1,56.3,33.3,56.3z"/>
	<path class="st1" d="M94.1,24.3L90,28.6c-3-2.8-5.8-4.2-8.3-4.2c-1.6,0-2.9,0.5-4,1.5c-1.1,1-1.6,2.2-1.6,3.7
		c0,1.5,0.6,2.7,1.8,3.9c1.2,1.1,3.3,2.5,6.4,4.1s5.5,3.4,7.1,5.4c1.7,2,2.5,4.3,2.5,7.2c0,3.6-1.2,6.6-3.7,9.1
		c-2.5,2.5-5.6,3.7-9.2,3.7c-5.1,0-9.3-2.2-12.7-6.5l4-4.5c2.8,3.2,5.6,4.9,8.5,4.9c2,0,3.6-0.6,5-1.9c1.4-1.3,2.1-2.8,2.1-4.5
		c0-1.7-0.6-3.2-1.9-4.3c-1.3-1.2-3.4-2.5-6.5-4c-3.1-1.5-5.4-3.2-6.9-5.1c-1.6-1.9-2.3-4.3-2.3-7.4c0-3.1,1.1-5.7,3.3-7.8
		c2.2-2.2,5.2-3.2,8.9-3.2C86.1,18.3,90,20.3,94.1,24.3z"/>
	<path class="st1" d="M143.1,52.8c-2.2,3.2-5.1,5.7-8.7,7.4c-3.6,1.7-7.4,2.5-11.6,2.5c-6.5,0-11.9-2.1-16.2-6.4
		c-4.3-4.3-6.5-9.5-6.5-15.6s2.2-11.4,6.5-15.8c4.4-4.4,10-6.6,16.9-6.6c4.1,0,7.9,0.9,11.4,2.7s6.2,4.3,8.1,7.5l-5,3.2
		c-3.7-4.9-8.7-7.3-14.7-7.3c-4.8,0-8.8,1.5-12,4.6c-3.2,3.1-4.9,6.8-4.9,11.4c0,4.5,1.6,8.4,4.8,11.6c3.2,3.2,7.2,4.9,12.1,4.9
		c5.9,0,10.8-2.5,14.8-7.4L143.1,52.8z"/>
	<path class="st1" d="M193.7,61.4h-6.2v-6.2c-4.6,5-9.8,7.5-15.8,7.5c-6,0-11-2.2-15.3-6.6c-4.2-4.4-6.4-9.6-6.4-15.7
		s2.1-11.3,6.4-15.6c4.3-4.3,9.5-6.5,15.6-6.5c6.1,0,11.3,2.5,15.4,7.5v-6.4h6.2V61.4z M172.2,56.8c4.3,0,7.9-1.5,11-4.6
		c3.1-3.1,4.6-6.9,4.6-11.5c0-4.6-1.5-8.4-4.5-11.5c-3-3.1-6.7-4.7-11.1-4.7c-4.4,0-8.1,1.6-11.1,4.8c-3,3.2-4.5,7-4.5,11.4
		c0,4.4,1.5,8.2,4.6,11.4C164.2,55.2,167.9,56.8,172.2,56.8z"/>
	<path class="st1" d="M222.2,20l-3.3,5.4c-0.9-0.5-1.7-0.7-2.5-0.7c-1.6,0-3,0.8-4.3,2.3c-1.3,1.6-2.2,3.6-2.9,6.2
		c-0.6,2.5-1,7.1-1,13.7v14.4h-6.5v-42h6.5V24c1.3-1.9,2.6-3.3,3.9-4.2c1.3-0.9,2.8-1.4,4.5-1.4S220.1,18.9,222.2,20z"/>
	<path class="st1" d="M292.4,61.4h-2l-35.7-40.9v40.9h-6.8V5h2l36,41.4V5h6.5V61.4z"/>
	<path class="st1" d="M323.9,18.3c6.1,0,11.2,2.2,15.4,6.5c4.2,4.4,6.4,9.6,6.4,15.7c0,6.1-2.1,11.3-6.3,15.7
		c-4.2,4.3-9.4,6.5-15.5,6.5s-11.3-2.2-15.6-6.5c-4.2-4.3-6.3-9.6-6.3-15.7c0-6.1,2.1-11.3,6.4-15.7
		C312.6,20.5,317.7,18.3,323.9,18.3z M323.9,56.7c4.3,0,7.9-1.6,10.9-4.7c3-3.1,4.5-6.9,4.5-11.2c0-4.4-1.5-8.2-4.6-11.4
		c-3.1-3.2-6.7-4.8-10.9-4.8c-4.2,0-7.8,1.6-10.8,4.8c-3,3.2-4.5,7-4.5,11.4s1.5,8.2,4.4,11.2C315.8,55.1,319.4,56.7,323.9,56.7z"/>
	<path class="st1" d="M416.6,61.4h-6.5V38.5c0-3.6-0.2-6.3-0.7-8c-0.4-1.7-1.4-3.1-2.8-4.3s-3.4-1.7-5.8-1.7c-2.4,0-4.6,0.8-6.7,2.3
		c-2.1,1.5-3.6,3.6-4.4,6.3c-0.8,2.6-1.2,6.6-1.2,11.7v16.6h-6.2V39.9c0-4.2-0.2-7.2-0.7-9.1c-0.4-1.8-1.4-3.4-2.9-4.5
		c-1.5-1.2-3.4-1.8-5.6-1.8c-2.3,0-4.4,0.7-6.4,2.1c-2,1.4-3.5,3.3-4.5,5.5c-1,2.3-1.5,6.1-1.5,11.4v17.9h-6.3v-42h6.3v5.9
		c3.6-4.7,8.1-7,13.5-7c2.9,0,5.6,0.8,8,2.3c2.4,1.6,4.1,3.8,5.1,6.7c1.7-2.9,3.9-5.2,6.5-6.7c2.6-1.5,5.4-2.3,8.3-2.3
		c4,0,7.4,1.4,10.2,4.2c2.8,2.8,4.2,8.1,4.2,15.9V61.4z"/>
	<path class="st1" d="M448.4,24.3l-4.1,4.2c-3-2.8-5.8-4.2-8.3-4.2c-1.6,0-2.9,0.5-4,1.5s-1.6,2.2-1.6,3.7c0,1.5,0.6,2.7,1.8,3.9
		c1.2,1.1,3.3,2.5,6.4,4.1s5.5,3.4,7.1,5.4c1.7,2,2.5,4.3,2.5,7.2c0,3.6-1.2,6.6-3.7,9.1c-2.5,2.5-5.6,3.7-9.2,3.7
		c-5.1,0-9.3-2.2-12.7-6.5l4-4.5c2.8,3.2,5.6,4.9,8.5,4.9c2,0,3.6-0.6,5-1.9c1.4-1.3,2.1-2.8,2.1-4.5c0-1.7-0.6-3.2-1.9-4.3
		c-1.3-1.2-3.4-2.5-6.5-4c-3.1-1.5-5.4-3.2-6.9-5.1c-1.6-1.9-2.3-4.3-2.3-7.4c0-3.1,1.1-5.7,3.3-7.8c2.2-2.2,5.2-3.2,8.9-3.2
		C440.4,18.3,444.3,20.3,448.4,24.3z"/>
</g>
<g class="st0">
	<path class="st2" d="M84.2,79.5c2,0,3.6,0.7,5,2.1c1.4,1.4,2.1,3.1,2.1,5.1s-0.7,3.7-2,5.1s-3,2.1-5,2.1s-3.7-0.7-5.1-2.1
		s-2-3.1-2-5.1s0.7-3.7,2.1-5.1C80.5,80.2,82.2,79.5,84.2,79.5z M84.2,92c1.4,0,2.6-0.5,3.5-1.5c1-1,1.5-2.2,1.5-3.7
		s-0.5-2.7-1.5-3.7c-1-1-2.2-1.6-3.5-1.6s-2.5,0.5-3.5,1.6c-1,1-1.5,2.3-1.5,3.7s0.5,2.6,1.4,3.6S82.8,92,84.2,92z"/>
	<path class="st2" d="M106,93.5h-2V87c0-1.5-0.1-2.5-0.2-3.1c-0.1-0.5-0.4-1-0.6-1.4s-0.6-0.7-1.1-0.8c-0.4-0.2-0.9-0.3-1.5-0.3
		s-1.2,0.1-1.8,0.5c-0.6,0.3-1.1,0.7-1.5,1.2s-0.7,1.1-0.9,1.7c-0.2,0.6-0.2,1.8-0.2,3.6v5h-2.1V79.9h2.1v2c1.4-1.6,3-2.4,4.8-2.4
		c1,0,1.9,0.3,2.7,0.8c0.8,0.5,1.4,1.2,1.8,2.1c0.4,0.9,0.6,2.3,0.6,4.1V93.5z"/>
	<path class="st2" d="M111.1,93.5h-2V74.7h2V93.5z"/>
	<path class="st2" d="M126,79.9l-8.1,18.5h-2.1l2.6-6l-5.5-12.5h2.1l4.5,10l4.3-10H126z"/>
	<path class="st2" d="M147.6,93.5h-2v-2c-1.5,1.6-3.2,2.5-5.1,2.5c-1.9,0-3.6-0.7-5-2.1s-2.1-3.1-2.1-5.1c0-2,0.7-3.7,2.1-5.1
		c1.4-1.4,3.1-2.1,5.1-2.1c2,0,3.7,0.8,5,2.4v-2.1h2V93.5z M140.6,92c1.4,0,2.6-0.5,3.6-1.5s1.5-2.2,1.5-3.7c0-1.5-0.5-2.7-1.5-3.8
		c-1-1-2.2-1.5-3.6-1.5c-1.4,0-2.6,0.5-3.6,1.6c-1,1-1.5,2.3-1.5,3.7c0,1.4,0.5,2.6,1.5,3.7C138,91.5,139.2,92,140.6,92z"/>
	<path class="st2" d="M164.4,90.7c-0.7,1.1-1.7,1.9-2.8,2.4s-2.4,0.8-3.8,0.8c-2.1,0-3.9-0.7-5.3-2.1c-1.4-1.4-2.1-3.1-2.1-5.1
		s0.7-3.7,2.1-5.1c1.4-1.4,3.2-2.1,5.5-2.1c1.3,0,2.6,0.3,3.7,0.9c1.1,0.6,2,1.4,2.6,2.4l-1.6,1c-1.2-1.6-2.8-2.4-4.8-2.4
		c-1.5,0-2.9,0.5-3.9,1.5c-1,1-1.6,2.2-1.6,3.7c0,1.5,0.5,2.7,1.6,3.8c1,1,2.3,1.6,3.9,1.6c1.9,0,3.5-0.8,4.8-2.4L164.4,90.7z"/>
	<path class="st2" d="M180.8,93.5h-2v-2c-1.5,1.6-3.2,2.5-5.1,2.5c-1.9,0-3.6-0.7-5-2.1s-2.1-3.1-2.1-5.1c0-2,0.7-3.7,2.1-5.1
		c1.4-1.4,3.1-2.1,5.1-2.1c2,0,3.7,0.8,5,2.4v-2.1h2V93.5z M173.8,92c1.4,0,2.6-0.5,3.6-1.5s1.5-2.2,1.5-3.7c0-1.5-0.5-2.7-1.5-3.8
		c-1-1-2.2-1.5-3.6-1.5c-1.4,0-2.6,0.5-3.6,1.6c-1,1-1.5,2.3-1.5,3.7c0,1.4,0.5,2.6,1.5,3.7C171.2,91.5,172.4,92,173.8,92z"/>
	<path class="st2" d="M197.9,93.5h-2v-2c-1.5,1.6-3.2,2.5-5.1,2.5c-1.9,0-3.6-0.7-5-2.1c-1.4-1.4-2.1-3.1-2.1-5.1
		c0-2,0.7-3.7,2.1-5.1c1.4-1.4,3.1-2.1,5.1-2.1c2,0,3.7,0.8,5,2.4v-7.2h2V93.5z M190.9,92c1.3,0,2.5-0.5,3.5-1.5
		c1-1,1.5-2.2,1.5-3.7c0-1.5-0.5-2.8-1.4-3.8c-1-1-2.2-1.5-3.6-1.5s-2.7,0.5-3.6,1.6c-1,1-1.5,2.3-1.5,3.7s0.5,2.6,1.5,3.7
		S189.5,92,190.9,92z"/>
	<path class="st2" d="M214.9,87h-11.9c0.1,1.5,0.6,2.7,1.5,3.6c0.9,0.9,2,1.4,3.3,1.4c2.2,0,3.9-1.1,5-3.2l1.8,0.9
		c-0.8,1.5-1.7,2.5-2.8,3.2c-1.1,0.7-2.3,1-3.8,1c-2,0-3.7-0.7-5.1-2.1c-1.3-1.4-2-3.1-2-5.1s0.7-3.7,2-5.1c1.3-1.4,3-2.1,5-2.1
		c2,0,3.6,0.7,5,2C214.1,82.9,214.8,84.7,214.9,87z M212.6,85.2c-0.2-1.2-0.8-2.1-1.7-2.7s-1.9-1-3-1c-2.3,0-3.9,1.2-4.6,3.7H212.6z
		"/>
	<path class="st2" d="M237.9,93.5h-2.1v-7.4c0-1.2-0.1-2-0.2-2.6c-0.1-0.5-0.4-1-0.9-1.4s-1.1-0.6-1.9-0.6s-1.5,0.2-2.2,0.8
		c-0.7,0.5-1.2,1.2-1.4,2c-0.3,0.9-0.4,2.1-0.4,3.8v5.4h-2v-7c0-1.4-0.1-2.4-0.2-3c-0.1-0.6-0.5-1.1-0.9-1.5
		c-0.5-0.4-1.1-0.6-1.8-0.6s-1.4,0.2-2.1,0.7c-0.7,0.5-1.1,1.1-1.5,1.8c-0.3,0.7-0.5,2-0.5,3.7v5.8h-2V79.9h2v1.9
		c1.2-1.5,2.6-2.3,4.4-2.3c1,0,1.8,0.3,2.6,0.8c0.8,0.5,1.3,1.2,1.7,2.2c0.6-1,1.3-1.7,2.1-2.2c0.9-0.5,1.8-0.8,2.7-0.8
		c1.3,0,2.4,0.5,3.3,1.4c0.9,0.9,1.4,2.6,1.4,5.2V93.5z"/>
	<path class="st2" d="M252.8,79.9l-8.1,18.5h-2.1l2.6-6l-5.5-12.5h2.2l4.5,10l4.3-10H252.8z"/>
	<path class="st2" d="M272.7,93.5h-2V87c0-1.5-0.1-2.5-0.2-3.1c-0.1-0.5-0.4-1-0.6-1.4c-0.3-0.4-0.6-0.7-1.1-0.8
		c-0.4-0.2-0.9-0.3-1.5-0.3s-1.2,0.1-1.8,0.5c-0.6,0.3-1.1,0.7-1.5,1.2c-0.4,0.5-0.7,1.1-0.9,1.7c-0.2,0.6-0.2,1.8-0.2,3.6v5h-2.1
		V79.9h2.1v2c1.3-1.6,3-2.4,4.8-2.4c1,0,1.9,0.3,2.7,0.8c0.8,0.5,1.4,1.2,1.8,2.1s0.6,2.3,0.6,4.1V93.5z"/>
	<path class="st2" d="M282.5,79.5c2,0,3.6,0.7,5,2.1c1.4,1.4,2.1,3.1,2.1,5.1s-0.7,3.7-2,5.1s-3,2.1-5,2.1s-3.7-0.7-5.1-2.1
		c-1.4-1.4-2-3.1-2-5.1s0.7-3.7,2.1-5.1C278.9,80.2,280.5,79.5,282.5,79.5z M282.5,92c1.4,0,2.6-0.5,3.5-1.5c1-1,1.5-2.2,1.5-3.7
		s-0.5-2.7-1.5-3.7c-1-1-2.2-1.6-3.5-1.6s-2.5,0.5-3.5,1.6c-1,1-1.5,2.3-1.5,3.7s0.5,2.6,1.4,3.6S281.1,92,282.5,92z"/>
	<path class="st2" d="M312.6,93.5h-2.1v-7.4c0-1.2-0.1-2-0.2-2.6c-0.1-0.5-0.5-1-0.9-1.4s-1.1-0.6-1.9-0.6s-1.5,0.2-2.2,0.8
		s-1.2,1.2-1.4,2s-0.4,2.1-0.4,3.8v5.4h-2v-7c0-1.4-0.1-2.4-0.2-3c-0.1-0.6-0.5-1.1-0.9-1.5c-0.5-0.4-1.1-0.6-1.8-0.6
		s-1.4,0.2-2.1,0.7c-0.7,0.5-1.1,1.1-1.5,1.8s-0.5,2-0.5,3.7v5.8h-2.1V79.9h2.1v1.9c1.2-1.5,2.6-2.3,4.4-2.3c0.9,0,1.8,0.3,2.6,0.8
		c0.8,0.5,1.3,1.2,1.7,2.2c0.6-1,1.3-1.7,2.1-2.2c0.8-0.5,1.8-0.8,2.7-0.8c1.3,0,2.4,0.5,3.3,1.4c0.9,0.9,1.4,2.6,1.4,5.2V93.5z"/>
	<path class="st2" d="M316.6,74.7c0.5,0,0.8,0.2,1.1,0.5c0.3,0.3,0.5,0.7,0.5,1.1s-0.2,0.8-0.5,1.1c-0.3,0.3-0.7,0.5-1.1,0.5
		c-0.4,0-0.8-0.2-1.1-0.5c-0.3-0.3-0.5-0.7-0.5-1.1c0-0.4,0.2-0.8,0.5-1.1C315.8,74.9,316.2,74.7,316.6,74.7z M317.7,93.5h-2.1V79.9
		h2.1V93.5z"/>
	<path class="st2" d="M332.8,93.5h-2V87c0-1.5-0.1-2.5-0.2-3.1c-0.1-0.5-0.3-1-0.6-1.4c-0.3-0.4-0.6-0.7-1-0.8
		c-0.4-0.2-0.9-0.3-1.5-0.3s-1.2,0.1-1.8,0.5c-0.6,0.3-1.1,0.7-1.5,1.2c-0.4,0.5-0.7,1.1-0.9,1.7c-0.2,0.6-0.2,1.8-0.2,3.6v5h-2.1
		V79.9h2.1v2c1.4-1.6,3-2.4,4.8-2.4c1,0,1.9,0.3,2.7,0.8c0.8,0.5,1.4,1.2,1.8,2.1c0.4,0.9,0.6,2.3,0.6,4.1V93.5z"/>
	<path class="st2" d="M349.7,93.5h-2v-2c-1.5,1.6-3.2,2.5-5.1,2.5c-1.9,0-3.6-0.7-5-2.1s-2.1-3.1-2.1-5.1c0-2,0.7-3.7,2.1-5.1
		c1.4-1.4,3.1-2.1,5.1-2.1c2,0,3.7,0.8,5,2.4v-2.1h2V93.5z M342.7,92c1.4,0,2.6-0.5,3.6-1.5s1.5-2.2,1.5-3.7c0-1.5-0.5-2.7-1.5-3.8
		c-1-1-2.2-1.5-3.6-1.5c-1.4,0-2.6,0.5-3.6,1.6c-1,1-1.5,2.3-1.5,3.7c0,1.4,0.5,2.6,1.5,3.7C340.1,91.5,341.3,92,342.7,92z"/>
	<path class="st2" d="M359.5,81.7h-2.7v9.5c0,0.4,0,0.6,0.2,0.6c0.1,0.1,0.3,0.1,0.8,0.1h1.2v1.8c-0.8,0.1-1.4,0.2-1.8,0.2
		c-0.8,0-1.4-0.2-1.8-0.6s-0.6-1-0.6-1.9v-9.8h-2.3v-1.8h2.3v-5.1h2.1v5.1h2.7V81.7z"/>
	<path class="st2" d="M375.1,87h-12c0.1,1.5,0.6,2.7,1.5,3.6c0.9,0.9,2,1.4,3.3,1.4c2.2,0,3.8-1.1,5-3.2l1.8,0.9
		c-0.8,1.5-1.7,2.5-2.8,3.2c-1.1,0.7-2.3,1-3.8,1c-2,0-3.7-0.7-5.1-2.1c-1.3-1.4-2-3.1-2-5.1s0.7-3.7,2-5.1c1.3-1.4,3-2.1,5-2.1
		s3.6,0.7,5,2C374.4,82.9,375,84.7,375.1,87z M372.8,85.2c-0.2-1.2-0.8-2.1-1.7-2.7c-0.9-0.7-1.9-1-3.1-1c-2.3,0-3.9,1.2-4.6,3.7
		H372.8z"/>
	<path class="st2" d="M391.5,93.5h-2v-2c-1.5,1.6-3.2,2.5-5.1,2.5s-3.6-0.7-5-2.1c-1.4-1.4-2-3.1-2-5.1c0-2,0.7-3.7,2.1-5.1
		c1.4-1.4,3.1-2.1,5.1-2.1c2,0,3.7,0.8,5,2.4v-7.2h2V93.5z M384.5,92c1.3,0,2.5-0.5,3.5-1.5s1.6-2.2,1.6-3.7c0-1.5-0.5-2.8-1.4-3.8
		c-1-1-2.2-1.5-3.6-1.5c-1.5,0-2.7,0.5-3.7,1.6c-1,1-1.5,2.3-1.5,3.7s0.5,2.6,1.5,3.7S383.1,92,384.5,92z"/>
	<path class="st2" d="M407.1,77.2c-0.8-0.3-1.4-0.5-1.9-0.5s-0.7,0.1-0.9,0.4s-0.2,0.8-0.2,1.5v1.3h2.8v1.8h-2.8v11.8h-2.1V81.7
		h-1.7v-1.8h1.7v-1.5c0-1.2,0.2-2.1,0.7-2.7c0.5-0.6,1.2-0.9,2.2-0.9c0.5,0,1.3,0.1,2.2,0.4V77.2z"/>
	<path class="st2" d="M409.9,74.7c0.5,0,0.8,0.2,1.1,0.5c0.3,0.3,0.5,0.7,0.5,1.1s-0.2,0.8-0.5,1.1c-0.3,0.3-0.7,0.5-1.1,0.5
		c-0.4,0-0.8-0.2-1.1-0.5c-0.3-0.3-0.5-0.7-0.5-1.1c0-0.4,0.2-0.8,0.5-1.1C409.1,74.9,409.5,74.7,409.9,74.7z M411,93.5h-2.1V79.9
		h2.1V93.5z"/>
	<path class="st2" d="M415.9,93.5h-2.1V74.7h2.1V93.5z"/>
	<path class="st2" d="M439.3,93.5h-2.1v-7.4c0-1.2-0.1-2-0.2-2.6c-0.1-0.5-0.5-1-0.9-1.4s-1.1-0.6-1.9-0.6s-1.5,0.2-2.2,0.8
		s-1.2,1.2-1.4,2s-0.4,2.1-0.4,3.8v5.4h-2v-7c0-1.4-0.1-2.4-0.2-3c-0.1-0.6-0.5-1.1-0.9-1.5c-0.5-0.4-1.1-0.6-1.8-0.6
		s-1.4,0.2-2.1,0.7c-0.7,0.5-1.1,1.1-1.5,1.8s-0.5,2-0.5,3.7v5.8h-2.1V79.9h2.1v1.9c1.2-1.5,2.6-2.3,4.4-2.3c0.9,0,1.8,0.3,2.6,0.8
		c0.8,0.5,1.3,1.2,1.7,2.2c0.6-1,1.3-1.7,2.1-2.2c0.8-0.5,1.8-0.8,2.7-0.8c1.3,0,2.4,0.5,3.3,1.4c0.9,0.9,1.4,2.6,1.4,5.2V93.5z"/>
	<path class="st2" d="M449.7,81.5l-1.3,1.4c-1-0.9-1.9-1.4-2.7-1.4c-0.5,0-1,0.2-1.3,0.5c-0.3,0.3-0.5,0.7-0.5,1.2
		c0,0.5,0.2,0.9,0.6,1.2c0.4,0.4,1.1,0.8,2.1,1.3c1,0.5,1.8,1.1,2.3,1.7c0.5,0.6,0.8,1.4,0.8,2.3c0,1.2-0.4,2.2-1.2,3
		s-1.8,1.2-3,1.2c-1.7,0-3-0.7-4.1-2.1l1.3-1.4c0.9,1,1.8,1.6,2.8,1.6c0.6,0,1.2-0.2,1.6-0.6c0.5-0.4,0.7-0.9,0.7-1.5
		s-0.2-1-0.6-1.4s-1.1-0.8-2.1-1.3c-1-0.5-1.7-1.1-2.2-1.7c-0.5-0.6-0.8-1.4-0.8-2.4c0-1,0.4-1.8,1.1-2.5c0.7-0.7,1.7-1,2.9-1
		S448.4,80.2,449.7,81.5z"/>
</g>
</svg>
